<?xml version="1.0" standalone="no"?>
<!DOCTYPE svg PUBLIC "-//W3C//DTD SVG 20010904//EN"
 "http://www.w3.org/TR/2001/REC-SVG-20010904/DTD/svg10.dtd">
<svg version="1.0" xmlns="http://www.w3.org/2000/svg"
 width="320.000000pt" height="320.000000pt" viewBox="0 0 320.000000 320.000000"
 preserveAspectRatio="xMidYMid meet">
<metadata>
Created by potrace 1.11, written by Peter Selinger 2001-2013
</metadata>
<g transform="translate(0.000000,320.000000) scale(0.100000,-0.100000)"
fill="#000000" stroke="none">
<path d="M1498 2905 c-1 -2 -32 -6 -67 -9 -55 -6 -84 -11 -166 -30 -50 -12
-148 -48 -225 -83 -41 -19 -174 -97 -192 -113 -7 -6 -29 -22 -48 -36 -66 -46
-202 -189 -263 -274 -105 -147 -190 -344 -223 -514 -20 -104 -25 -310 -11
-421 15 -115 52 -240 105 -360 177 -400 542 -679 992 -760 75 -13 327 -14 400
-1 127 23 246 63 375 127 77 38 153 79 169 92 123 96 171 140 248 225 115 126
235 358 277 536 27 111 33 157 36 281 9 364 -123 699 -375 953 -199 200 -476
342 -740 378 -50 6 -286 14 -292 9z"/>
</g>
</svg>
